# xmcd
#
# Track frame offsets:
#	150
#	17600
#	35340
#	72895
#
# Disc length: 1455 seconds
# Revision: 0
# Processed by: cddbd v1.5.2PL0 Copyright (c) Steve Scherf et al.
# Submitted via: dBpowerAMP V12.0
#
DISCID=2805ad04
DTITLE=Black Box - Native New Yorker [Single Part 2]
DYEAR=1997
DGENRE=House
TTITLE0=Native New Yorker [Studio 54 (1997) Big Apple Edit]
TTITLE1=Not Anyone [Kamasutra 7” Radio Edit]
TTITLE2=Native New Yorker [Lelewel ’Til The End Mix]
TTITLE3=Native New Yorker [Brooklyn Bridge Mix]
EXTD=
EXTT0=
EXTT1=
EXTT2=
EXTT3=
PLAYORDER=
